<svg width="40" height="22" viewBox="0 0 40 22" fill="none" xmlns="http://www.w3.org/2000/svg">
<path id="eye opend" d="M39.8964 10.6573C39.8391 10.5473 38.4366 7.94538 35.3045 5.32513C32.3983 2.89667 27.4051 0 20.0924 0C12.7797 0 7.7865 2.89667 4.88029 5.32513C1.74819 7.94538 0.345655 10.5431 0.28834 10.6573C0.230709 10.7656 0.200928 10.8829 0.200928 11.0014C0.200928 11.12 0.230709 11.2372 0.28834 11.3455C0.345655 11.4541 1.74819 14.056 4.88029 16.6763C7.7865 19.1047 12.7797 22 20.0924 22C27.4051 22 32.3983 19.1047 35.3045 16.6763C38.4366 14.056 39.8391 11.4583 39.8964 11.3455C39.9541 11.2372 39.9838 11.12 39.9838 11.0014C39.9838 10.8829 39.9541 10.7656 39.8964 10.6573ZM20.0924 20.3077C14.8025 20.3077 10.1836 18.6972 6.36205 15.5227C4.76005 14.1908 3.40442 12.6664 2.33988 11C3.40412 9.33382 4.75979 7.80992 6.36205 6.47872C10.1836 3.30282 14.8025 1.69231 20.0924 1.69231C25.3822 1.69231 30.0011 3.30282 33.8227 6.47872C35.425 7.80992 36.7806 9.33382 37.8449 11C36.7711 12.7219 31.3868 20.3077 20.0924 20.3077ZM20.0924 4.51282C18.5587 4.51282 17.0595 4.89329 15.7843 5.60611C14.5091 6.31893 13.5152 7.33209 12.9283 8.51746C12.3413 9.70284 12.1878 11.0072 12.487 12.2656C12.7862 13.524 13.5247 14.6799 14.6092 15.5871C15.6937 16.4944 17.0754 17.1122 18.5796 17.3625C20.0838 17.6128 21.6429 17.4844 23.0599 16.9934C24.4768 16.5024 25.6879 15.6709 26.5399 14.6041C27.392 13.5373 27.8468 12.283 27.8468 11C27.8441 9.28018 27.0263 7.63144 25.5726 6.41534C24.119 5.19925 22.1482 4.51506 20.0924 4.51282ZM20.0924 15.7949C18.9588 15.7949 17.8507 15.5137 16.9081 14.9868C15.9656 14.4599 15.231 13.7111 14.7972 12.8349C14.3634 11.9588 14.2499 10.9947 14.471 10.0646C14.6922 9.13445 15.238 8.28009 16.0396 7.60951C16.8412 6.93894 17.8624 6.48227 18.9742 6.29726C20.086 6.11225 21.2384 6.2072 22.2857 6.57012C23.333 6.93303 24.2282 7.5476 24.858 8.33611C25.4877 9.12462 25.8239 10.0517 25.8239 11C25.8239 12.2717 25.22 13.4913 24.1452 14.3905C23.0703 15.2897 21.6125 15.7949 20.0924 15.7949Z" fill="#191917"/>
</svg>
