<svg width="25" height="25" viewBox="0 0 25 25" fill="none" xmlns="http://www.w3.org/2000/svg">
<path d="M17.3765 15.4432L16.7448 16.2512H17.7704H18.5346C18.7038 16.2512 18.862 16.317 18.9779 16.4329L23.6498 21.1047C23.6501 21.105 23.6504 21.1053 23.6507 21.1056C23.8927 21.3512 23.8924 21.748 23.647 21.9934L22.3204 23.32L22.3185 23.3219C22.0792 23.5638 21.6847 23.5665 21.4383 23.3201L16.7645 18.6463C16.6486 18.5304 16.5828 18.3721 16.5828 18.2029V17.4388V16.4132L15.7748 17.0449C14.2051 18.2722 12.2313 19.0014 10.0824 19.0014C4.97219 19.0014 0.831665 14.8609 0.831665 9.75071C0.831665 4.64052 4.97219 0.5 10.0824 0.5C15.1926 0.5 19.3331 4.64052 19.3331 9.75071C19.3331 11.8997 18.6039 13.8734 17.3765 15.4432ZM3.58194 9.75071C3.58194 13.3461 6.49219 16.2512 10.0824 16.2512C13.6778 16.2512 16.5828 13.3409 16.5828 9.75071C16.5828 6.15532 13.6726 3.25027 10.0824 3.25027C6.48699 3.25027 3.58194 6.16052 3.58194 9.75071Z" fill="#D8DAD5" stroke="#262723"/>
</svg>
