<svg width="32" height="31" viewBox="0 0 32 31" fill="none" xmlns="http://www.w3.org/2000/svg">
<path d="M16 0C11.8891 0 7.94666 1.63303 5.03984 4.53984C2.13303 7.44666 0.5 11.3891 0.5 15.5C0.5 19.6109 2.13303 23.5533 5.03984 26.4602C7.94666 29.367 11.8891 31 16 31C20.1109 31 24.0533 29.367 26.9602 26.4602C29.867 23.5533 31.5 19.6109 31.5 15.5C31.5 11.3891 29.867 7.44666 26.9602 4.53984C24.0533 1.63303 20.1109 0 16 0ZM20.0855 28.1364H19.9654C19.8752 28.1415 19.7849 28.1281 19.7 28.097C19.6152 28.0659 19.5376 28.0177 19.472 27.9555C19.4114 27.8915 19.3642 27.816 19.3332 27.7335C19.3021 27.651 19.2878 27.5631 19.2912 27.475V25.659C19.2989 25.0557 19.3041 24.4448 19.3041 23.83C19.302 23.3804 19.2363 22.9333 19.109 22.5021C18.9885 22.0662 18.7455 21.674 18.409 21.3719C19.3092 21.285 20.1942 21.0805 21.0414 20.7635C21.756 20.4918 22.4023 20.0668 22.935 19.5184C23.4607 18.9668 23.852 18.3003 24.0781 17.5731C24.353 16.6826 24.4839 15.7537 24.4656 14.8219C24.4706 14.1712 24.3568 13.5251 24.1297 12.9154C23.899 12.3008 23.5502 11.7374 23.1029 11.2569C23.1994 11.0145 23.2696 10.7625 23.3121 10.5051C23.3547 10.2468 23.3767 9.98587 23.3767 9.72496C23.3767 9.38912 23.338 9.05329 23.2605 8.7265C23.1901 8.39132 23.0946 8.06188 22.975 7.74096C22.9293 7.72314 22.8806 7.71437 22.8316 7.71512H22.6895C22.3925 7.71771 22.1005 7.76679 21.819 7.8585C21.5088 7.94904 21.2054 8.06126 20.9109 8.19433C20.6181 8.32558 20.333 8.47351 20.0571 8.63737C19.7794 8.80142 19.534 8.959 19.317 9.10496C17.1441 8.49933 14.8469 8.49933 12.674 9.10496C12.4316 8.94295 12.1853 8.78704 11.9351 8.63737C11.6553 8.47214 11.3654 8.3246 11.0671 8.19562C10.7735 8.05814 10.4689 7.94537 10.1565 7.8585C9.88047 7.76731 9.59209 7.71896 9.30142 7.71512H9.15933C9.11074 7.71444 9.06249 7.72321 9.01725 7.74096C8.89591 8.06233 8.79665 8.39161 8.72017 8.7265C8.65042 9.05458 8.61683 9.38912 8.61554 9.72496C8.61554 9.98587 8.6375 10.2468 8.68142 10.5051C8.72404 10.7622 8.7925 11.014 8.88808 11.2569C8.44193 11.738 8.09438 12.3019 7.86508 12.9167C7.63682 13.5262 7.5217 14.1723 7.52537 14.8232C7.50731 15.75 7.63457 16.674 7.90254 17.5615C8.13633 18.2887 8.52642 18.9565 9.04437 19.5197C9.58042 20.0648 10.2262 20.4884 10.938 20.7648C11.7814 21.0877 12.6649 21.2944 13.5639 21.3797C13.3129 21.6072 13.1138 21.886 12.9801 22.1973C12.8529 22.5051 12.7661 22.8282 12.7217 23.1583C12.2478 23.3852 11.7295 23.5043 11.204 23.507C10.7161 23.5266 10.2345 23.3909 9.82842 23.1195C9.4389 22.8309 9.10903 22.4694 8.85708 22.0552C8.74432 21.8812 8.61822 21.7163 8.47992 21.5618C8.33401 21.3994 8.17313 21.251 7.99942 21.1187C7.82819 20.9908 7.6405 20.8865 7.44142 20.8088C7.24554 20.7229 7.034 20.6784 6.82013 20.6783C6.76846 20.6796 6.71679 20.6847 6.66512 20.6912C6.59457 20.691 6.52426 20.6997 6.45587 20.717C6.39577 20.7328 6.33892 20.759 6.28796 20.7945C6.26479 20.8073 6.24541 20.826 6.2318 20.8487C6.21818 20.8714 6.21082 20.8973 6.21046 20.9237C6.21588 20.9859 6.23489 21.0461 6.26614 21.1001C6.29738 21.1541 6.34011 21.2006 6.39129 21.2363C6.51142 21.3319 6.61088 21.4055 6.69096 21.4572L6.72971 21.4843C6.9015 21.6173 7.06683 21.7607 7.22312 21.9144C7.36779 22.041 7.49825 22.1844 7.61062 22.3407C7.72687 22.4944 7.82762 22.6584 7.909 22.8328C8.00329 23.0059 8.10275 23.2048 8.20737 23.4308C8.45021 24.0431 8.88163 24.561 9.43962 24.9098C10.0247 25.2237 10.6809 25.38 11.3461 25.3632C11.5709 25.3632 11.7969 25.3503 12.0204 25.3244C12.2425 25.2882 12.4634 25.2508 12.6856 25.2069V27.4582C12.6896 27.549 12.6744 27.6396 12.641 27.7241C12.6076 27.8086 12.5568 27.8852 12.4918 27.9487C12.4268 28.0122 12.3492 28.0613 12.264 28.0927C12.1787 28.1242 12.0878 28.1373 11.9971 28.1312H11.917C8.90493 27.1581 6.33919 25.1416 4.68186 22.4448C3.02452 19.748 2.3845 16.548 2.87703 13.4212C3.36956 10.2943 4.96229 7.44607 7.3684 5.3893C9.77451 3.33253 12.8359 2.20238 16.0013 2.20238C19.1667 2.20238 22.2281 3.33253 24.6342 5.3893C27.0403 7.44607 28.633 10.2943 29.1256 13.4212C29.6181 16.548 28.9781 19.748 27.3207 22.4448C25.6634 25.1416 23.0977 27.1581 20.0855 28.1312V28.1364Z" fill="#D8DAD5"/>
</svg>
