<svg xmlns="http://www.w3.org/2000/svg" width="63" height="62" viewBox="0 0 63 62" fill="none">
  <path d="M31.8585 0.962402C14.6789 0.962402 0.752991 14.6482 0.752991 31.5316C0.752991 48.4149 14.6789 62.1008 31.8585 62.1008C49.038 62.1008 62.964 48.4149 62.964 31.5316C62.964 14.6482 49.038 0.962402 31.8585 0.962402ZM28.7479 21.5966V41.4666C28.7479 42.0746 28.5021 42.6578 28.0646 43.0877C27.6271 43.5177 27.0337 43.7593 26.415 43.7593C25.7963 43.7593 25.2029 43.5177 24.7654 43.0877C24.3279 42.6578 24.0821 42.0746 24.0821 41.4666V21.5966C24.0821 20.9885 24.3279 20.4054 24.7654 19.9754C25.2029 19.5455 25.7963 19.3039 26.415 19.3039C27.0337 19.3039 27.6271 19.5455 28.0646 19.9754C28.5021 20.4054 28.7479 20.9885 28.7479 21.5966ZM47.4112 21.5966V41.4666C47.4112 42.0746 47.1654 42.6578 46.7279 43.0877C46.2904 43.5177 45.697 43.7593 45.0783 43.7593C44.4596 43.7593 43.8662 43.5177 43.4287 43.0877C42.9912 42.6578 42.7454 42.0746 42.7454 41.4666V21.5966C42.7454 20.9885 42.9912 20.4054 43.4287 19.9754C43.8662 19.5455 44.4596 19.3039 45.0783 19.3039C45.697 19.3039 46.2904 19.5455 46.7279 19.9754C47.1654 20.4054 47.4112 20.9885 47.4112 21.5966ZM38.0796 26.182V36.8812C38.0796 37.4892 37.8338 38.0724 37.3963 38.5024C36.9588 38.9323 36.3654 39.1739 35.7467 39.1739C35.1279 39.1739 34.5345 38.9323 34.097 38.5024C33.6595 38.0724 33.4137 37.4892 33.4137 36.8812V26.182C33.4137 25.5739 33.6595 24.9908 34.097 24.5608C34.5345 24.1308 35.1279 23.8893 35.7467 23.8893C36.3654 23.8893 36.9588 24.1308 37.3963 24.5608C37.8338 24.9908 38.0796 25.5739 38.0796 26.182ZM19.4163 27.7104V35.3527C19.4163 35.9608 19.1705 36.5439 18.733 36.9739C18.2955 37.4039 17.7021 37.6454 17.0834 37.6454C16.4646 37.6454 15.8713 37.4039 15.4338 36.9739C14.9962 36.5439 14.7505 35.9608 14.7505 35.3527V27.7104C14.7505 27.1024 14.9962 26.5192 15.4338 26.0893C15.8713 25.6593 16.4646 25.4177 17.0834 25.4177C17.7021 25.4177 18.2955 25.6593 18.733 26.0893C19.1705 26.5192 19.4163 27.1024 19.4163 27.7104Z" fill="#F8FAFF"/>
</svg>