<svg width="63" height="62" viewBox="0 0 63 62" fill="none" xmlns="http://www.w3.org/2000/svg">
<path d="M31.1667 43.334C34.4379 43.334 37.5751 42.0345 39.8881 39.7214C42.2012 37.4083 43.5007 34.2711 43.5007 31C43.5007 27.7288 42.2012 24.5916 39.8881 22.2785C37.5751 19.9654 34.4379 18.666 31.1667 18.666V43.334Z" fill="#F8FAFF"/>
<path fill-rule="evenodd" clip-rule="evenodd" d="M31.1667 0.164978C14.1365 0.164978 0.331665 13.9698 0.331665 31C0.331665 48.0301 14.1365 61.835 31.1667 61.835C48.1968 61.835 62.0017 48.0301 62.0017 31C62.0017 13.9698 48.1968 0.164978 31.1667 0.164978ZM31.1667 6.33198V18.666C27.8955 18.666 24.7583 19.9654 22.4452 22.2785C20.1321 24.5916 18.8327 27.7288 18.8327 31C18.8327 34.2712 20.1321 37.4084 22.4452 39.7214C24.7583 42.0345 27.8955 43.334 31.1667 43.334V55.668C37.709 55.668 43.9834 53.069 48.6096 48.4429C53.2357 43.8167 55.8347 37.5423 55.8347 31C55.8347 24.4576 53.2357 18.1832 48.6096 13.5571C43.9834 8.93092 37.709 6.33198 31.1667 6.33198Z" fill="#F8FAFF"/>
</svg>
