<svg width="48" height="31" viewBox="0 0 48 31" fill="none" xmlns="http://www.w3.org/2000/svg">
<path d="M29.1429 5.16666C29.1429 4.7099 29.3235 4.27184 29.645 3.94886C29.9664 3.62589 30.4025 3.44444 30.8571 3.44444H44.5714C45.0261 3.44444 45.4621 3.62589 45.7836 3.94886C46.1051 4.27184 46.2857 4.7099 46.2857 5.16666C46.2857 5.62342 46.1051 6.06147 45.7836 6.38445C45.4621 6.70743 45.0261 6.88888 44.5714 6.88888H30.8571C30.4025 6.88888 29.9664 6.70743 29.645 6.38445C29.3235 6.06147 29.1429 5.62342 29.1429 5.16666ZM48 20.6666C48 21.1234 47.8194 21.5614 47.4979 21.8844C47.1764 22.2074 46.7404 22.3888 46.2857 22.3888H31.0714C31.4549 23.8663 32.3147 25.1746 33.5165 26.1093C34.7183 27.0441 36.1944 27.5526 37.7143 27.5555C38.6151 27.5599 39.5076 27.3831 40.3394 27.0356C41.1711 26.688 41.9252 26.1768 42.5571 25.5319C42.8785 25.2098 43.3139 25.0289 43.7679 25.0289C44.2218 25.0289 44.6572 25.2098 44.9786 25.5319C45.1399 25.6903 45.2681 25.8795 45.3556 26.0884C45.4432 26.2972 45.4882 26.5216 45.4882 26.7482C45.4882 26.9748 45.4432 27.1992 45.3556 27.4081C45.2681 27.6169 45.1399 27.8061 44.9786 27.9645C44.0295 28.9304 42.8982 29.6963 41.6509 30.2175C40.4035 30.7387 39.0652 31.0047 37.7143 30.9999C35.68 30.9999 33.6913 30.3939 31.9998 29.2585C30.3084 28.123 28.99 26.5092 28.2115 24.621C27.433 22.7328 27.2293 20.6552 27.6262 18.6507C28.0231 16.6462 29.0027 14.805 30.4412 13.3599C31.8797 11.9147 33.7124 10.9306 35.7076 10.5319C37.7029 10.1332 39.771 10.3378 41.6505 11.1199C43.5299 11.902 45.1363 13.2264 46.2665 14.9257C47.3968 16.625 48 18.6229 48 20.6666ZM44.3571 18.9444C43.9795 17.4626 43.1217 16.1492 41.9189 15.2113C40.7161 14.2733 39.2369 13.7642 37.7143 13.7642C36.1917 13.7642 34.7124 14.2733 33.5097 15.2113C32.3069 16.1492 31.4491 17.4626 31.0714 18.9444H44.3571ZM24.8571 21.9583C24.8571 24.3563 23.9089 26.6561 22.2211 28.3517C20.5333 30.0473 18.2441 30.9999 15.8571 30.9999H1.71429C1.25963 30.9999 0.823593 30.8185 0.502103 30.4955C0.180612 30.1725 0 29.7345 0 29.2777V1.72222C0 1.26546 0.180612 0.827405 0.502103 0.504427C0.823593 0.181448 1.25963 0 1.71429 0H13.2857C14.8558 0.0022114 16.3919 0.460422 17.7087 1.31944C19.0256 2.17846 20.0672 3.40165 20.7081 4.84169C21.3489 6.28172 21.5617 7.87718 21.3207 9.43589C21.0798 10.9946 20.3954 12.4501 19.35 13.6271C20.982 14.3175 22.3749 15.4762 23.3545 16.9581C24.3341 18.44 24.8568 20.1793 24.8571 21.9583ZM3.42857 12.9166H13.2857C14.536 12.9166 15.7351 12.4177 16.6192 11.5295C17.5033 10.6413 18 9.43663 18 8.18054C18 6.92445 17.5033 5.7198 16.6192 4.83161C15.7351 3.94342 14.536 3.44444 13.2857 3.44444H3.42857V12.9166ZM21.4286 21.9583C21.4229 20.4756 20.8341 19.0552 19.7905 18.0067C18.7469 16.9583 17.333 16.3667 15.8571 16.3611H3.42857V27.5555H15.8571C17.333 27.5498 18.7469 26.9583 19.7905 25.9099C20.8341 24.8614 21.4229 23.441 21.4286 21.9583Z" fill="#D8DAD5"/>
</svg>
