<svg width="31" height="31" viewBox="0 0 31 31" fill="none" xmlns="http://www.w3.org/2000/svg">
<path d="M8.99 0H22.01C26.97 0 31 4.03 31 8.99V22.01C31 24.3943 30.0528 26.6809 28.3669 28.3669C26.6809 30.0528 24.3943 31 22.01 31H8.99C4.03 31 0 26.97 0 22.01V8.99C0 6.6057 0.947158 4.31906 2.63311 2.63311C4.31906 0.947158 6.6057 0 8.99 0ZM8.68 3.1C7.20009 3.1 5.7808 3.68789 4.73434 4.73434C3.68789 5.7808 3.1 7.20009 3.1 8.68V22.32C3.1 25.4045 5.5955 27.9 8.68 27.9H22.32C23.7999 27.9 25.2192 27.3121 26.2657 26.2657C27.3121 25.2192 27.9 23.7999 27.9 22.32V8.68C27.9 5.5955 25.4045 3.1 22.32 3.1H8.68ZM23.6375 5.425C24.1514 5.425 24.6442 5.62913 25.0075 5.99248C25.3709 6.35583 25.575 6.84864 25.575 7.3625C25.575 7.87636 25.3709 8.36917 25.0075 8.73252C24.6442 9.09587 24.1514 9.3 23.6375 9.3C23.1236 9.3 22.6308 9.09587 22.2675 8.73252C21.9041 8.36917 21.7 7.87636 21.7 7.3625C21.7 6.84864 21.9041 6.35583 22.2675 5.99248C22.6308 5.62913 23.1236 5.425 23.6375 5.425ZM15.5 7.75C17.5554 7.75 19.5267 8.56651 20.9801 10.0199C22.4335 11.4733 23.25 13.4446 23.25 15.5C23.25 17.5554 22.4335 19.5267 20.9801 20.9801C19.5267 22.4335 17.5554 23.25 15.5 23.25C13.4446 23.25 11.4733 22.4335 10.0199 20.9801C8.56651 19.5267 7.75 17.5554 7.75 15.5C7.75 13.4446 8.56651 11.4733 10.0199 10.0199C11.4733 8.56651 13.4446 7.75 15.5 7.75ZM15.5 10.85C14.2667 10.85 13.084 11.3399 12.212 12.212C11.3399 13.084 10.85 14.2667 10.85 15.5C10.85 16.7333 11.3399 17.916 12.212 18.788C13.084 19.6601 14.2667 20.15 15.5 20.15C16.7333 20.15 17.916 19.6601 18.788 18.788C19.6601 17.916 20.15 16.7333 20.15 15.5C20.15 14.2667 19.6601 13.084 18.788 12.212C17.916 11.3399 16.7333 10.85 15.5 10.85Z" fill="#D8DAD5"/>
</svg>
