<svg width="62" height="62" viewBox="0 0 62 62" fill="none" xmlns="http://www.w3.org/2000/svg">
<path d="M30.835 53.2C23.1267 53.2 16.3125 49.2533 12.335 43.3334C12.4275 37.1667 24.6684 33.775 30.835 33.775C37.0017 33.775 49.2425 37.1667 49.335 43.3334C47.2966 46.3686 44.5431 48.8561 41.317 50.5767C38.0909 52.2972 34.4913 53.1981 30.835 53.2ZM30.835 9.41669C33.2883 9.41669 35.6411 10.3912 37.3758 12.1259C39.1105 13.8607 40.085 16.2134 40.085 18.6667C40.085 21.1199 39.1105 23.4727 37.3758 25.2074C35.6411 26.9421 33.2883 27.9167 30.835 27.9167C28.3818 27.9167 26.029 26.9421 24.2943 25.2074C22.5596 23.4727 21.585 21.1199 21.585 18.6667C21.585 16.2134 22.5596 13.8607 24.2943 12.1259C26.029 10.3912 28.3818 9.41669 30.835 9.41669ZM30.835 0.166687C26.7859 0.166687 22.7765 0.964215 19.0356 2.51373C15.2948 4.06325 11.8957 6.33442 9.03258 9.19756C3.25021 14.9799 0.00170898 22.8225 0.00170898 31C0.00170898 39.1775 3.25021 47.0201 9.03258 52.8025C11.8957 55.6656 15.2948 57.9368 19.0356 59.4863C22.7765 61.0358 26.7859 61.8334 30.835 61.8334C39.0126 61.8334 46.8551 58.5849 52.6375 52.8025C58.4199 47.0201 61.6684 39.1775 61.6684 31C61.6684 13.9492 47.7934 0.166687 30.835 0.166687Z" fill="#191A17"/>
</svg>
